<?xml version="1.0" encoding="iso-8859-1"?>
<!-- Generator: Adobe Illustrator 16.0.0, SVG Export Plug-In . SVG Version: 6.00 Build 0)  -->
<!DOCTYPE svg PUBLIC "-//W3C//DTD SVG 1.1//EN" "http://www.w3.org/Graphics/SVG/1.1/DTD/svg11.dtd">
<svg xmlns="http://www.w3.org/2000/svg" xmlns:xlink="http://www.w3.org/1999/xlink" version="1.1" id="Capa_1" x="0px" y="0px" width="512px" height="512px" viewBox="0 0 107.863 107.863" style="enable-background:new 0 0 107.863 107.863;" xml:space="preserve">
<g>
	<g id="Sunny">
		<g>
			<path d="M54.023,22.808c-17.207,0-31.207,13.969-31.207,31.144c0,17.17,14,31.146,31.207,31.146     c17.209,0,31.205-13.976,31.205-31.146C85.229,36.776,71.232,22.808,54.023,22.808z M54.023,79.919     c-14.348,0-26.02-11.651-26.02-25.968c0-14.32,11.672-25.968,26.02-25.968c14.35,0,26.021,11.647,26.021,25.968     C80.045,68.268,68.373,79.919,54.023,79.919z M11.692,51.363H2.684c-0.734,0-1.395,0.309-1.866,0.799     C0.316,52.632,0,53.295,0,54.036c0,1.43,1.161,2.589,2.594,2.589H11.6c0.731,0,1.389-0.305,1.86-0.79     c0.504-0.472,0.823-1.14,0.823-1.884C14.283,52.522,13.124,51.363,11.692,51.363z M85.791,81.995     c-1.012-1.009-2.652-1.009-3.667,0c-0.019,0.019-0.03,0.039-0.047,0.058c-0.015,0.014-0.028,0.021-0.041,0.033     c-1.013,1.009-1.013,2.648,0,3.657l7.085,7.071c0.507,0.502,1.169,0.758,1.831,0.758c0.665,0,1.327-0.256,1.834-0.758     c0.019-0.019,0.03-0.041,0.049-0.06c0.013-0.012,0.026-0.021,0.038-0.03c1.014-1.009,1.014-2.648,0-3.656L85.791,81.995z      M89.727,14.789c-0.185,0.108-0.359,0.231-0.518,0.389l-7.087,7.073c-1.015,1.008-1.015,2.648,0,3.656     c0.504,0.507,1.168,0.758,1.833,0.758c0.001,0,0.002,0,0.003,0c0,0,0.001,0,0.002,0c0.662,0,1.324-0.251,1.831-0.758l7.087-7.072     c1.013-1.009,1.013-2.648,0-3.657C92.021,14.321,90.721,14.198,89.727,14.789z M24.09,81.239c-0.664,0-1.328,0.251-1.834,0.756     l-7.087,7.073c-1.011,1.008-1.011,2.647,0,3.656c0.506,0.506,1.171,0.758,1.833,0.758c0.001,0,0.002,0,0.003,0     c0,0,0.001,0,0.002,0c0.662,0,1.324-0.252,1.831-0.758l7.087-7.067c1.012-1.015,1.012-2.648,0-3.662     C25.418,81.49,24.754,81.239,24.09,81.239z M22.168,25.992c0.507,0.507,1.172,0.763,1.834,0.763c0.664,0,1.326-0.256,1.833-0.763     c0.013-0.013,0.021-0.027,0.033-0.04c0.018-0.017,0.037-0.027,0.055-0.045c1.014-1.008,1.014-2.648,0-3.656l-7.085-7.073     c-1.014-1.013-2.653-1.013-3.667,0c-0.013,0.013-0.021,0.027-0.033,0.041c-0.018,0.016-0.038,0.027-0.055,0.044     c-1.013,1.014-1.013,2.648,0,3.662L22.168,25.992z M53.935,93.698c-1.43,0-2.591,1.157-2.591,2.588l-0.003,8.987     c0,1.431,1.162,2.59,2.594,2.59c1.43,0,2.59-1.159,2.59-2.59l0.002-8.987C56.527,94.855,55.366,93.698,53.935,93.698z      M53.935,14.38c1.112,0,2.053-0.703,2.42-1.686c0.164-0.34,0.264-0.716,0.264-1.117V2.588c0-1.43-1.161-2.588-2.594-2.588     c-1.113,0-2.054,0.704-2.421,1.688c-0.163,0.339-0.263,0.714-0.263,1.115v8.988C51.341,13.222,52.503,14.38,53.935,14.38z      M105.271,51.453l-9.01-0.005c-1.43,0-2.591,1.159-2.591,2.588c0,1.43,1.158,2.589,2.591,2.589h9.01     c1.432,0,2.592-1.159,2.592-2.589C107.863,52.612,106.702,51.453,105.271,51.453z" fill="#002b36"/>
		</g>
	</g>
</g>
<g>
</g>
<g>
</g>
<g>
</g>
<g>
</g>
<g>
</g>
<g>
</g>
<g>
</g>
<g>
</g>
<g>
</g>
<g>
</g>
<g>
</g>
<g>
</g>
<g>
</g>
<g>
</g>
<g>
</g>
</svg>
