<?xml version="1.0" encoding="iso-8859-1"?>
<!-- Generator: Adobe Illustrator 16.0.0, SVG Export Plug-In . SVG Version: 6.00 Build 0)  -->
<!DOCTYPE svg PUBLIC "-//W3C//DTD SVG 1.1//EN" "http://www.w3.org/Graphics/SVG/1.1/DTD/svg11.dtd">
<svg xmlns="http://www.w3.org/2000/svg" xmlns:xlink="http://www.w3.org/1999/xlink" version="1.1" id="Capa_1" x="0px" y="0px" width="512px" height="512px" viewBox="0 0 107.863 107.863" style="enable-background:new 0 0 107.863 107.863;" xml:space="preserve">
<g>
	<g id="Cloud__x2B__Thunder__x2B__Snow">
		<g>
			<path d="M92.822,32.167c0.128-1.088,0.246-2.342,0.246-3.271c0-15.223-12.127-27.612-27.031-27.612     c-9.485,0-18.233,5.111-23.098,13.262c-3.02-2.106-6.588-3.24-10.323-3.24c-10.123,0-18.358,8.417-18.358,18.755     c0,1.139,0.098,2.267,0.296,3.376C5.868,36.662,0,45.079,0,54.73c0,12.293,9.54,21.568,22.188,21.568h23.653L35.773,89.144     c-0.203,0.261-0.243,0.61-0.105,0.912c0.141,0.302,0.434,0.496,0.76,0.496l8.522,0.11l-10.784,14.526     c-0.241,0.32-0.226,0.777,0.035,1.089c0.168,0.2,0.404,0.301,0.645,0.301c0.141,0,0.281-0.035,0.411-0.104l35.034-19.813     c0.338-0.19,0.509-0.592,0.411-0.974c-0.095-0.381-0.431-0.651-0.817-0.651l-10.693-0.06l5.604-8.373     c0.062-0.094,0.099-0.198,0.121-0.305h20.758c12.234,0,22.188-10.168,22.188-22.668C107.863,43.926,101.663,35.258,92.822,32.167     z M85.675,71.086H22.188c-9.741,0-17.087-7.032-17.087-16.356c0-8.126,5.395-15.107,13.119-16.983     c0.7-0.171,1.296-0.633,1.643-1.274c0.349-0.637,0.414-1.399,0.186-2.097c-0.457-1.379-0.69-2.834-0.69-4.313     c0-7.464,5.946-13.543,13.257-13.543c3.514,0,6.827,1.39,9.324,3.912c0.592,0.603,1.438,0.873,2.257,0.707     c0.82-0.15,1.515-0.707,1.858-1.484c3.551-7.99,11.394-13.157,19.981-13.157c12.091,0,21.93,10.053,21.93,22.401     c0,1.274-0.354,3.867-0.491,4.761c-0.207,1.354,0.652,2.643,1.961,2.944c7.721,1.771,13.326,8.928,13.326,17.028     C102.762,63.257,95.096,71.086,85.675,71.086z M24.126,82.011c-2.257,0-4.093,1.877-4.093,4.179c0,2.308,1.836,4.184,4.093,4.184     s4.096-1.876,4.096-4.184C28.222,83.888,26.384,82.011,24.126,82.011z M82.966,82.011c-2.257,0-4.093,1.877-4.093,4.179     c0,2.308,1.836,4.184,4.093,4.184c2.259,0,4.097-1.876,4.097-4.184C87.062,83.888,85.225,82.011,82.966,82.011z M65.959,97.646     c-2.257,0-4.093,1.875-4.093,4.178c0,2.309,1.836,4.184,4.093,4.184s4.093-1.875,4.093-4.184     C70.053,99.521,68.217,97.646,65.959,97.646z" fill="#002b36"/>
		</g>
	</g>
</g>
<g>
</g>
<g>
</g>
<g>
</g>
<g>
</g>
<g>
</g>
<g>
</g>
<g>
</g>
<g>
</g>
<g>
</g>
<g>
</g>
<g>
</g>
<g>
</g>
<g>
</g>
<g>
</g>
<g>
</g>
</svg>
