<?xml version="1.0" encoding="iso-8859-1"?>
<!-- Generator: Adobe Illustrator 16.0.0, SVG Export Plug-In . SVG Version: 6.00 Build 0)  -->
<!DOCTYPE svg PUBLIC "-//W3C//DTD SVG 1.1//EN" "http://www.w3.org/Graphics/SVG/1.1/DTD/svg11.dtd">
<svg xmlns="http://www.w3.org/2000/svg" xmlns:xlink="http://www.w3.org/1999/xlink" version="1.1" id="Capa_1" x="0px" y="0px" width="512px" height="512px" viewBox="0 0 44.236 44.236" style="enable-background:new 0 0 44.236 44.236;" xml:space="preserve">
<g>
	<g>
		<path d="M22.118,44.236C9.922,44.236,0,34.314,0,22.119C0,9.923,9.922,0,22.118,0s22.118,9.923,22.118,22.119    C44.236,34.314,34.314,44.236,22.118,44.236z M22.118,1.5C10.75,1.5,1.5,10.75,1.5,22.119s9.25,20.617,20.618,20.617    s20.618-9.248,20.618-20.617S33.486,1.5,22.118,1.5z" fill="#002b36"/>
		<g>
			<circle cx="22.118" cy="22.438" r="1.41" fill="#002b36"/>
			<path d="M22.118,24.098c-0.916,0-1.66-0.744-1.66-1.66c0-0.915,0.745-1.66,1.66-1.66s1.659,0.745,1.659,1.66     C23.777,23.354,23.034,24.098,22.118,24.098z M22.118,21.277c-0.64,0-1.16,0.521-1.16,1.16s0.521,1.161,1.16,1.161     c0.639,0,1.159-0.521,1.159-1.161S22.758,21.277,22.118,21.277z" fill="#002b36"/>
		</g>
		<g>
			<path d="M22.118,32.42c-0.6,0-1.208-0.061-1.86-0.182c-0.446-0.062-0.83-0.444-0.898-0.926l-0.357-1.838     c-0.461-0.207-0.896-0.459-1.287-0.744l-1.798,0.623c-0.087,0.041-0.233,0.07-0.381,0.07c-0.317,0-0.622-0.146-0.837-0.398     c-0.836-0.952-1.482-2.074-1.862-3.233c-0.183-0.418-0.023-0.974,0.403-1.257l1.358-1.186c-0.023-0.23-0.035-0.479-0.035-0.752     c0-0.271,0.011-0.52,0.035-0.75l-1.435-1.245c-0.35-0.226-0.51-0.78-0.303-1.262c0.356-1.098,1.003-2.219,1.847-3.181     c0.299-0.355,0.822-0.488,1.261-0.298l1.746,0.603c0.39-0.284,0.825-0.537,1.287-0.745l0.364-1.874     c0.063-0.447,0.449-0.83,0.932-0.894c1.125-0.234,2.465-0.243,3.693,0.009c0.432,0.055,0.817,0.438,0.886,0.921l0.357,1.838     c0.447,0.204,0.875,0.453,1.283,0.746l1.803-0.624c0.087-0.04,0.232-0.07,0.381-0.07c0.318,0,0.624,0.146,0.838,0.401     c0.834,0.949,1.48,2.07,1.861,3.23c0.183,0.419,0.022,0.974-0.403,1.258l-1.358,1.185c0.022,0.232,0.034,0.48,0.034,0.752     s-0.011,0.52-0.034,0.75l1.434,1.245c0.351,0.226,0.511,0.78,0.304,1.261c-0.356,1.098-1.002,2.22-1.847,3.182     c-0.303,0.357-0.825,0.486-1.262,0.299l-1.75-0.604c-0.406,0.293-0.836,0.541-1.281,0.746l-0.364,1.873     c-0.062,0.444-0.446,0.827-0.927,0.896C23.327,32.359,22.718,32.42,22.118,32.42z M20.789,30.809c0.96,0.152,1.738,0.146,2.66,0     l0.39-2.012c0.05-0.254,0.226-0.464,0.466-0.557c0.57-0.221,1.111-0.535,1.607-0.936c0.201-0.162,0.472-0.207,0.716-0.125     l1.938,0.672c0.58-0.705,1.033-1.49,1.33-2.301l-1.549-1.337c-0.201-0.174-0.295-0.442-0.246-0.703     c0.047-0.259,0.07-0.558,0.07-0.914s-0.023-0.654-0.07-0.913c-0.05-0.261,0.045-0.529,0.246-0.703l1.547-1.342     c-0.313-0.838-0.764-1.611-1.33-2.297l-1.938,0.673c-0.244,0.083-0.516,0.036-0.717-0.125c-0.495-0.4-1.035-0.715-1.605-0.936     c-0.242-0.093-0.418-0.303-0.467-0.557l-0.391-2.014c-0.926-0.156-1.792-0.148-2.659,0l-0.39,2.014     c-0.049,0.254-0.225,0.464-0.466,0.557c-0.598,0.231-1.149,0.552-1.595,0.926c-0.202,0.17-0.478,0.22-0.728,0.135l-1.938-0.672     c-0.581,0.707-1.034,1.491-1.33,2.301l1.549,1.337c0.201,0.175,0.294,0.442,0.246,0.705c-0.048,0.255-0.071,0.553-0.071,0.911     s0.023,0.657,0.071,0.912c0.049,0.263-0.044,0.53-0.246,0.705l-1.547,1.343c0.313,0.836,0.763,1.609,1.329,2.297l1.938-0.674     c0.251-0.084,0.526-0.033,0.728,0.135c0.446,0.375,0.998,0.693,1.595,0.926c0.241,0.093,0.417,0.303,0.466,0.557L20.789,30.809z" fill="#002b36"/>
		</g>
	</g>
</g>
<g>
</g>
<g>
</g>
<g>
</g>
<g>
</g>
<g>
</g>
<g>
</g>
<g>
</g>
<g>
</g>
<g>
</g>
<g>
</g>
<g>
</g>
<g>
</g>
<g>
</g>
<g>
</g>
<g>
</g>
</svg>
